<?xml version="1.0" encoding="utf-8" standalone="no"?>
<!DOCTYPE svg PUBLIC "-//W3C//DTD SVG 1.1//EN"
  "http://www.w3.org/Graphics/SVG/1.1/DTD/svg11.dtd">
<svg xmlns:xlink="http://www.w3.org/1999/xlink" width="331.2pt" height="259.2pt" viewBox="0 0 331.2 259.2" xmlns="http://www.w3.org/2000/svg" version="1.1">
 <metadata>
  <rdf:RDF xmlns:dc="http://purl.org/dc/elements/1.1/" xmlns:cc="http://creativecommons.org/ns#" xmlns:rdf="http://www.w3.org/1999/02/22-rdf-syntax-ns#">
   <cc:Work>
    <dc:type rdf:resource="http://purl.org/dc/dcmitype/StillImage"/>
    <dc:date>2026-09-21T17:59:07.818072</dc:date>
    <dc:format>image/svg+xml</dc:format>
    <dc:creator>
     <cc:Agent>
      <dc:title>Matplotlib v3.10.8, https://matplotlib.org/</dc:title>
     </cc:Agent>
    </dc:creator>
   </cc:Work>
  </rdf:RDF>
 </metadata>
 <defs>
  <style type="text/css">*{stroke-linejoin: round; stroke-linecap: butt}</style>
 </defs>
 <g id="figure_1">
  <g id="patch_1">
   <path d="M 0 259.2 
L 331.2 259.2 
L 331.2 0 
L 0 0 
z
" style="fill: #ffffff"/>
  </g>
  <g id="axes_1">
   <g id="patch_2">
    <path d="M 48.475865 227.779135 
L 328.19976 227.779135 
L 328.19976 3.00024 
L 48.475865 3.00024 
z
" style="fill: #ffffff"/>
   </g>
   <g id="PathCollection_1">
    <defs>
     <path id="m953dbd34e7" d="M 0 2.12132 
C 0.562581 2.12132 1.102195 1.897805 1.5 1.5 
C 1.897805 1.102195 2.12132 0.562581 2.12132 0 
C 2.12132 -0.562581 1.897805 -1.102195 1.5 -1.5 
C 1.102195 -1.897805 0.562581 -2.12132 0 -2.12132 
C -0.562581 -2.12132 -1.102195 -1.897805 -1.5 -1.5 
C -1.897805 -1.102195 -2.12132 -0.562581 -2.12132 0 
C -2.12132 0.562581 -1.897805 1.102195 -1.5 1.5 
C -1.102195 1.897805 -0.562581 2.12132 0 2.12132 
z
" style="stroke: #4d4d4d; stroke-opacity: 0.45"/>
    </defs>
    <g clip-path="url(#pae7edc1d88)">
     <use xlink:href="#m953dbd34e7" x="71.837982" y="217.561913" style="fill: #4d4d4d; fill-opacity: 0.45; stroke: #4d4d4d; stroke-opacity: 0.45"/>
     <use xlink:href="#m953dbd34e7" x="73.881808" y="217.561913" style="fill: #4d4d4d; fill-opacity: 0.45; stroke: #4d4d4d; stroke-opacity: 0.45"/>
     <use xlink:href="#m953dbd34e7" x="70.487037" y="217.561913" style="fill: #4d4d4d; fill-opacity: 0.45; stroke: #4d4d4d; stroke-opacity: 0.45"/>
     <use xlink:href="#m953dbd34e7" x="66.246185" y="217.561913" style="fill: #4d4d4d; fill-opacity: 0.45; stroke: #4d4d4d; stroke-opacity: 0.45"/>
     <use xlink:href="#m953dbd34e7" x="61.190587" y="217.561913" style="fill: #4d4d4d; fill-opacity: 0.45; stroke: #4d4d4d; stroke-opacity: 0.45"/>
    </g>
   </g>
   <g id="PathCollection_2">
    <defs>
     <path id="m5ecdfdad2b" d="M -2.015564 4.031129 
L 0 2.015564 
L 2.015564 4.031129 
L 4.031129 2.015564 
L 2.015564 0 
L 4.031129 -2.015564 
L 2.015564 -4.031129 
L 0 -2.015564 
L -2.015564 -4.031129 
L -4.031129 -2.015564 
L -2.015564 0 
L -4.031129 2.015564 
z
" style="stroke: #4d4d4d"/>
    </defs>
    <g clip-path="url(#pae7edc1d88)">
     <use xlink:href="#m5ecdfdad2b" x="68.72872" y="217.561913" style="fill: #4d4d4d; stroke: #4d4d4d"/>
    </g>
   </g>
   <g id="PathCollection_3">
    <defs>
     <path id="mb54d9cad5d" d="M 0 2.12132 
C 0.562581 2.12132 1.102195 1.897805 1.5 1.5 
C 1.897805 1.102195 2.12132 0.562581 2.12132 0 
C 2.12132 -0.562581 1.897805 -1.102195 1.5 -1.5 
C 1.102195 -1.897805 0.562581 -2.12132 0 -2.12132 
C -0.562581 -2.12132 -1.102195 -1.897805 -1.5 -1.5 
C -1.897805 -1.102195 -2.12132 -0.562581 -2.12132 0 
C -2.12132 0.562581 -1.897805 1.102195 -1.5 1.5 
C -1.102195 1.897805 -0.562581 2.12132 0 2.12132 
z
" style="stroke: #d55e00; stroke-opacity: 0.45"/>
    </defs>
    <g clip-path="url(#pae7edc1d88)">
     <use xlink:href="#mb54d9cad5d" x="296.14703" y="76.341297" style="fill: #d55e00; fill-opacity: 0.45; stroke: #d55e00; stroke-opacity: 0.45"/>
     <use xlink:href="#mb54d9cad5d" x="312.716994" y="13.217463" style="fill: #d55e00; fill-opacity: 0.45; stroke: #d55e00; stroke-opacity: 0.45"/>
     <use xlink:href="#mb54d9cad5d" x="315.446738" y="39.20575" style="fill: #d55e00; fill-opacity: 0.45; stroke: #d55e00; stroke-opacity: 0.45"/>
     <use xlink:href="#mb54d9cad5d" x="305.718543" y="81.420226" style="fill: #d55e00; fill-opacity: 0.45; stroke: #d55e00; stroke-opacity: 0.45"/>
     <use xlink:href="#mb54d9cad5d" x="304.809789" y="72.119849" style="fill: #d55e00; fill-opacity: 0.45; stroke: #d55e00; stroke-opacity: 0.45"/>
    </g>
   </g>
   <g id="PathCollection_4">
    <defs>
     <path id="m2dcdf66adb" d="M -2.015564 4.031129 
L 0 2.015564 
L 2.015564 4.031129 
L 4.031129 2.015564 
L 2.015564 0 
L 4.031129 -2.015564 
L 2.015564 -4.031129 
L 0 -2.015564 
L -2.015564 -4.031129 
L -4.031129 -2.015564 
L -2.015564 0 
L -4.031129 2.015564 
z
" style="stroke: #d55e00"/>
    </defs>
    <g clip-path="url(#pae7edc1d88)">
     <use xlink:href="#m2dcdf66adb" x="306.967819" y="56.460917" style="fill: #d55e00; stroke: #d55e00"/>
    </g>
   </g>
   <g id="PathCollection_5">
    <defs>
     <path id="m1321df0f68" d="M 0 2.12132 
C 0.562581 2.12132 1.102195 1.897805 1.5 1.5 
C 1.897805 1.102195 2.12132 0.562581 2.12132 0 
C 2.12132 -0.562581 1.897805 -1.102195 1.5 -1.5 
C 1.102195 -1.897805 0.562581 -2.12132 0 -2.12132 
C -0.562581 -2.12132 -1.102195 -1.897805 -1.5 -1.5 
C -1.897805 -1.102195 -2.12132 -0.562581 -2.12132 0 
C -2.12132 0.562581 -1.897805 1.102195 -1.5 1.5 
C -1.102195 1.897805 -0.562581 2.12132 0 2.12132 
z
" style="stroke: #cc79a7; stroke-opacity: 0.45"/>
    </defs>
    <g clip-path="url(#pae7edc1d88)">
     <use xlink:href="#m1321df0f68" x="296.129621" y="76.341297" style="fill: #cc79a7; fill-opacity: 0.45; stroke: #cc79a7; stroke-opacity: 0.45"/>
     <use xlink:href="#m1321df0f68" x="312.713512" y="13.613223" style="fill: #cc79a7; fill-opacity: 0.45; stroke: #cc79a7; stroke-opacity: 0.45"/>
     <use xlink:href="#m1321df0f68" x="315.485037" y="39.865351" style="fill: #cc79a7; fill-opacity: 0.45; stroke: #cc79a7; stroke-opacity: 0.45"/>
     <use xlink:href="#m1321df0f68" x="305.742916" y="81.354266" style="fill: #cc79a7; fill-opacity: 0.45; stroke: #cc79a7; stroke-opacity: 0.45"/>
     <use xlink:href="#m1321df0f68" x="304.813271" y="72.119849" style="fill: #cc79a7; fill-opacity: 0.45; stroke: #cc79a7; stroke-opacity: 0.45"/>
    </g>
   </g>
   <g id="PathCollection_6">
    <defs>
     <path id="maf385693e3" d="M -2.015564 4.031129 
L 0 2.015564 
L 2.015564 4.031129 
L 4.031129 2.015564 
L 2.015564 0 
L 4.031129 -2.015564 
L 2.015564 -4.031129 
L 0 -2.015564 
L -2.015564 -4.031129 
L -4.031129 -2.015564 
L -2.015564 0 
L -4.031129 2.015564 
z
" style="stroke: #cc79a7"/>
    </defs>
    <g clip-path="url(#pae7edc1d88)">
     <use xlink:href="#maf385693e3" x="306.976871" y="56.658797" style="fill: #cc79a7; stroke: #cc79a7"/>
    </g>
   </g>
   <g id="PathCollection_7">
    <defs>
     <path id="m4ab46b4ccc" d="M 0 2.12132 
C 0.562581 2.12132 1.102195 1.897805 1.5 1.5 
C 1.897805 1.102195 2.12132 0.562581 2.12132 0 
C 2.12132 -0.562581 1.897805 -1.102195 1.5 -1.5 
C 1.102195 -1.897805 0.562581 -2.12132 0 -2.12132 
C -0.562581 -2.12132 -1.102195 -1.897805 -1.5 -1.5 
C -1.897805 -1.102195 -2.12132 -0.562581 -2.12132 0 
C -2.12132 0.562581 -1.897805 1.102195 -1.5 1.5 
C -1.102195 1.897805 -0.562581 2.12132 0 2.12132 
z
" style="stroke: #0072b2; stroke-opacity: 0.45"/>
    </defs>
    <g clip-path="url(#pae7edc1d88)">
     <use xlink:href="#m4ab46b4ccc" x="295.965976" y="73.307131" style="fill: #0072b2; fill-opacity: 0.45; stroke: #0072b2; stroke-opacity: 0.45"/>
     <use xlink:href="#m4ab46b4ccc" x="312.340957" y="13.679183" style="fill: #0072b2; fill-opacity: 0.45; stroke: #0072b2; stroke-opacity: 0.45"/>
     <use xlink:href="#m4ab46b4ccc" x="315.185601" y="36.237544" style="fill: #0072b2; fill-opacity: 0.45; stroke: #0072b2; stroke-opacity: 0.45"/>
     <use xlink:href="#m4ab46b4ccc" x="305.589716" y="75.219975" style="fill: #0072b2; fill-opacity: 0.45; stroke: #0072b2; stroke-opacity: 0.45"/>
     <use xlink:href="#m4ab46b4ccc" x="304.590434" y="73.307131" style="fill: #0072b2; fill-opacity: 0.45; stroke: #0072b2; stroke-opacity: 0.45"/>
    </g>
   </g>
   <g id="PathCollection_8">
    <defs>
     <path id="m230b8a539e" d="M -2.015564 4.031129 
L 0 2.015564 
L 2.015564 4.031129 
L 4.031129 2.015564 
L 2.015564 0 
L 4.031129 -2.015564 
L 2.015564 -4.031129 
L 0 -2.015564 
L -2.015564 -4.031129 
L -4.031129 -2.015564 
L -2.015564 0 
L -4.031129 2.015564 
z
" style="stroke: #0072b2"/>
    </defs>
    <g clip-path="url(#pae7edc1d88)">
     <use xlink:href="#m230b8a539e" x="306.734537" y="54.350193" style="fill: #0072b2; stroke: #0072b2"/>
    </g>
   </g>
   <g id="PathCollection_9">
    <defs>
     <path id="m3b3118be70" d="M 0 2.12132 
C 0.562581 2.12132 1.102195 1.897805 1.5 1.5 
C 1.897805 1.102195 2.12132 0.562581 2.12132 0 
C 2.12132 -0.562581 1.897805 -1.102195 1.5 -1.5 
C 1.102195 -1.897805 0.562581 -2.12132 0 -2.12132 
C -0.562581 -2.12132 -1.102195 -1.897805 -1.5 -1.5 
C -1.897805 -1.102195 -2.12132 -0.562581 -2.12132 0 
C -2.12132 0.562581 -1.897805 1.102195 -1.5 1.5 
C -1.102195 1.897805 -0.562581 2.12132 0 2.12132 
z
" style="stroke: #009e73; stroke-opacity: 0.45"/>
    </defs>
    <g clip-path="url(#pae7edc1d88)">
     <use xlink:href="#m3b3118be70" x="294.615031" y="70.009125" style="fill: #009e73; fill-opacity: 0.45; stroke: #009e73; stroke-opacity: 0.45"/>
     <use xlink:href="#m3b3118be70" x="311.035276" y="14.668585" style="fill: #009e73; fill-opacity: 0.45; stroke: #009e73; stroke-opacity: 0.45"/>
     <use xlink:href="#m3b3118be70" x="313.49692" y="30.301133" style="fill: #009e73; fill-opacity: 0.45; stroke: #009e73; stroke-opacity: 0.45"/>
     <use xlink:href="#m3b3118be70" x="304.259662" y="64.468475" style="fill: #009e73; fill-opacity: 0.45; stroke: #009e73; stroke-opacity: 0.45"/>
     <use xlink:href="#m3b3118be70" x="303.35439" y="67.502641" style="fill: #009e73; fill-opacity: 0.45; stroke: #009e73; stroke-opacity: 0.45"/>
    </g>
   </g>
   <g id="PathCollection_10">
    <defs>
     <path id="m318b170966" d="M -2.015564 4.031129 
L 0 2.015564 
L 2.015564 4.031129 
L 4.031129 2.015564 
L 2.015564 0 
L 4.031129 -2.015564 
L 2.015564 -4.031129 
L 0 -2.015564 
L -2.015564 -4.031129 
L -4.031129 -2.015564 
L -2.015564 0 
L -4.031129 2.015564 
z
" style="stroke: #009e73"/>
    </defs>
    <g clip-path="url(#pae7edc1d88)">
     <use xlink:href="#m318b170966" x="305.352256" y="49.389992" style="fill: #009e73; stroke: #009e73"/>
    </g>
   </g>
   <g id="matplotlib.axis_1">
    <g id="xtick_1">
     <g id="line2d_1">
      <path d="M 69.818528 227.779135 
L 69.818528 3.00024 
" clip-path="url(#pae7edc1d88)" style="fill: none; stroke: #b0b0b0; stroke-opacity: 0.2; stroke-width: 0.8; stroke-linecap: square"/>
     </g>
     <g id="line2d_2">
      <defs>
       <path id="mf4db5b5bab" d="M 0 0 
L 0 3.5 
" style="stroke: #000000; stroke-width: 0.8"/>
      </defs>
      <g>
       <use xlink:href="#mf4db5b5bab" x="69.818528" y="227.779135" style="stroke: #000000; stroke-width: 0.8"/>
      </g>
     </g>
     <g id="text_1">
      <text style="font-size: 9px; font-family: 'DejaVu Sans', 'Bitstream Vera Sans', 'Computer Modern Sans Serif', 'Lucida Grande', 'Verdana', 'Geneva', 'Lucid', 'Arial', 'Helvetica', 'Avant Garde', sans-serif; text-anchor: middle" x="69.818528" y="241.617729" transform="rotate(-0 69.818528 241.617729)">0.48</text>
     </g>
    </g>
    <g id="xtick_2">
     <g id="line2d_3">
      <path d="M 125.527588 227.779135 
L 125.527588 3.00024 
" clip-path="url(#pae7edc1d88)" style="fill: none; stroke: #b0b0b0; stroke-opacity: 0.2; stroke-width: 0.8; stroke-linecap: square"/>
     </g>
     <g id="line2d_4">
      <g>
       <use xlink:href="#mf4db5b5bab" x="125.527588" y="227.779135" style="stroke: #000000; stroke-width: 0.8"/>
      </g>
     </g>
     <g id="text_2">
      <text style="font-size: 9px; font-family: 'DejaVu Sans', 'Bitstream Vera Sans', 'Computer Modern Sans Serif', 'Lucida Grande', 'Verdana', 'Geneva', 'Lucid', 'Arial', 'Helvetica', 'Avant Garde', sans-serif; text-anchor: middle" x="125.527588" y="241.617729" transform="rotate(-0 125.527588 241.617729)">0.50</text>
     </g>
    </g>
    <g id="xtick_3">
     <g id="line2d_5">
      <path d="M 181.236648 227.779135 
L 181.236648 3.00024 
" clip-path="url(#pae7edc1d88)" style="fill: none; stroke: #b0b0b0; stroke-opacity: 0.2; stroke-width: 0.8; stroke-linecap: square"/>
     </g>
     <g id="line2d_6">
      <g>
       <use xlink:href="#mf4db5b5bab" x="181.236648" y="227.779135" style="stroke: #000000; stroke-width: 0.8"/>
      </g>
     </g>
     <g id="text_3">
      <text style="font-size: 9px; font-family: 'DejaVu Sans', 'Bitstream Vera Sans', 'Computer Modern Sans Serif', 'Lucida Grande', 'Verdana', 'Geneva', 'Lucid', 'Arial', 'Helvetica', 'Avant Garde', sans-serif; text-anchor: middle" x="181.236648" y="241.617729" transform="rotate(-0 181.236648 241.617729)">0.52</text>
     </g>
    </g>
    <g id="xtick_4">
     <g id="line2d_7">
      <path d="M 236.945708 227.779135 
L 236.945708 3.00024 
" clip-path="url(#pae7edc1d88)" style="fill: none; stroke: #b0b0b0; stroke-opacity: 0.2; stroke-width: 0.8; stroke-linecap: square"/>
     </g>
     <g id="line2d_8">
      <g>
       <use xlink:href="#mf4db5b5bab" x="236.945708" y="227.779135" style="stroke: #000000; stroke-width: 0.8"/>
      </g>
     </g>
     <g id="text_4">
      <text style="font-size: 9px; font-family: 'DejaVu Sans', 'Bitstream Vera Sans', 'Computer Modern Sans Serif', 'Lucida Grande', 'Verdana', 'Geneva', 'Lucid', 'Arial', 'Helvetica', 'Avant Garde', sans-serif; text-anchor: middle" x="236.945708" y="241.617729" transform="rotate(-0 236.945708 241.617729)">0.54</text>
     </g>
    </g>
    <g id="xtick_5">
     <g id="line2d_9">
      <path d="M 292.654768 227.779135 
L 292.654768 3.00024 
" clip-path="url(#pae7edc1d88)" style="fill: none; stroke: #b0b0b0; stroke-opacity: 0.2; stroke-width: 0.8; stroke-linecap: square"/>
     </g>
     <g id="line2d_10">
      <g>
       <use xlink:href="#mf4db5b5bab" x="292.654768" y="227.779135" style="stroke: #000000; stroke-width: 0.8"/>
      </g>
     </g>
     <g id="text_5">
      <text style="font-size: 9px; font-family: 'DejaVu Sans', 'Bitstream Vera Sans', 'Computer Modern Sans Serif', 'Lucida Grande', 'Verdana', 'Geneva', 'Lucid', 'Arial', 'Helvetica', 'Avant Garde', sans-serif; text-anchor: middle" x="292.654768" y="241.617729" transform="rotate(-0 292.654768 241.617729)">0.56</text>
     </g>
    </g>
    <g id="text_6">
     <text style="font-size: 9px; font-family: 'DejaVu Sans', 'Bitstream Vera Sans', 'Computer Modern Sans Serif', 'Lucida Grande', 'Verdana', 'Geneva', 'Lucid', 'Arial', 'Helvetica', 'Avant Garde', sans-serif; text-anchor: middle" x="188.337812" y="254.328041" transform="rotate(-0 188.337812 254.328041)">Pre-update online target accuracy</text>
    </g>
   </g>
   <g id="matplotlib.axis_2">
    <g id="ytick_1">
     <g id="line2d_11">
      <path d="M 48.475865 217.561913 
L 328.19976 217.561913 
" clip-path="url(#pae7edc1d88)" style="fill: none; stroke: #b0b0b0; stroke-opacity: 0.2; stroke-width: 0.8; stroke-linecap: square"/>
     </g>
     <g id="line2d_12">
      <defs>
       <path id="m968557154a" d="M 0 0 
L -3.5 0 
" style="stroke: #000000; stroke-width: 0.8"/>
      </defs>
      <g>
       <use xlink:href="#m968557154a" x="48.475865" y="217.561913" style="stroke: #000000; stroke-width: 0.8"/>
      </g>
     </g>
     <g id="text_7">
      <text style="font-size: 9px; font-family: 'DejaVu Sans', 'Bitstream Vera Sans', 'Computer Modern Sans Serif', 'Lucida Grande', 'Verdana', 'Geneva', 'Lucid', 'Arial', 'Helvetica', 'Avant Garde', sans-serif; text-anchor: end" x="41.475865" y="220.981209" transform="rotate(-0 41.475865 220.981209)">0.000</text>
     </g>
    </g>
    <g id="ytick_2">
     <g id="line2d_13">
      <path d="M 48.475865 191.177865 
L 328.19976 191.177865 
" clip-path="url(#pae7edc1d88)" style="fill: none; stroke: #b0b0b0; stroke-opacity: 0.2; stroke-width: 0.8; stroke-linecap: square"/>
     </g>
     <g id="line2d_14">
      <g>
       <use xlink:href="#m968557154a" x="48.475865" y="191.177865" style="stroke: #000000; stroke-width: 0.8"/>
      </g>
     </g>
     <g id="text_8">
      <text style="font-size: 9px; font-family: 'DejaVu Sans', 'Bitstream Vera Sans', 'Computer Modern Sans Serif', 'Lucida Grande', 'Verdana', 'Geneva', 'Lucid', 'Arial', 'Helvetica', 'Avant Garde', sans-serif; text-anchor: end" x="41.475865" y="194.597162" transform="rotate(-0 41.475865 194.597162)">0.001</text>
     </g>
    </g>
    <g id="ytick_3">
     <g id="line2d_15">
      <path d="M 48.475865 164.793817 
L 328.19976 164.793817 
" clip-path="url(#pae7edc1d88)" style="fill: none; stroke: #b0b0b0; stroke-opacity: 0.2; stroke-width: 0.8; stroke-linecap: square"/>
     </g>
     <g id="line2d_16">
      <g>
       <use xlink:href="#m968557154a" x="48.475865" y="164.793817" style="stroke: #000000; stroke-width: 0.8"/>
      </g>
     </g>
     <g id="text_9">
      <text style="font-size: 9px; font-family: 'DejaVu Sans', 'Bitstream Vera Sans', 'Computer Modern Sans Serif', 'Lucida Grande', 'Verdana', 'Geneva', 'Lucid', 'Arial', 'Helvetica', 'Avant Garde', sans-serif; text-anchor: end" x="41.475865" y="168.213114" transform="rotate(-0 41.475865 168.213114)">0.002</text>
     </g>
    </g>
    <g id="ytick_4">
     <g id="line2d_17">
      <path d="M 48.475865 138.409769 
L 328.19976 138.409769 
" clip-path="url(#pae7edc1d88)" style="fill: none; stroke: #b0b0b0; stroke-opacity: 0.2; stroke-width: 0.8; stroke-linecap: square"/>
     </g>
     <g id="line2d_18">
      <g>
       <use xlink:href="#m968557154a" x="48.475865" y="138.409769" style="stroke: #000000; stroke-width: 0.8"/>
      </g>
     </g>
     <g id="text_10">
      <text style="font-size: 9px; font-family: 'DejaVu Sans', 'Bitstream Vera Sans', 'Computer Modern Sans Serif', 'Lucida Grande', 'Verdana', 'Geneva', 'Lucid', 'Arial', 'Helvetica', 'Avant Garde', sans-serif; text-anchor: end" x="41.475865" y="141.829066" transform="rotate(-0 41.475865 141.829066)">0.003</text>
     </g>
    </g>
    <g id="ytick_5">
     <g id="line2d_19">
      <path d="M 48.475865 112.025721 
L 328.19976 112.025721 
" clip-path="url(#pae7edc1d88)" style="fill: none; stroke: #b0b0b0; stroke-opacity: 0.2; stroke-width: 0.8; stroke-linecap: square"/>
     </g>
     <g id="line2d_20">
      <g>
       <use xlink:href="#m968557154a" x="48.475865" y="112.025721" style="stroke: #000000; stroke-width: 0.8"/>
      </g>
     </g>
     <g id="text_11">
      <text style="font-size: 9px; font-family: 'DejaVu Sans', 'Bitstream Vera Sans', 'Computer Modern Sans Serif', 'Lucida Grande', 'Verdana', 'Geneva', 'Lucid', 'Arial', 'Helvetica', 'Avant Garde', sans-serif; text-anchor: end" x="41.475865" y="115.445018" transform="rotate(-0 41.475865 115.445018)">0.004</text>
     </g>
    </g>
    <g id="ytick_6">
     <g id="line2d_21">
      <path d="M 48.475865 85.641674 
L 328.19976 85.641674 
" clip-path="url(#pae7edc1d88)" style="fill: none; stroke: #b0b0b0; stroke-opacity: 0.2; stroke-width: 0.8; stroke-linecap: square"/>
     </g>
     <g id="line2d_22">
      <g>
       <use xlink:href="#m968557154a" x="48.475865" y="85.641674" style="stroke: #000000; stroke-width: 0.8"/>
      </g>
     </g>
     <g id="text_12">
      <text style="font-size: 9px; font-family: 'DejaVu Sans', 'Bitstream Vera Sans', 'Computer Modern Sans Serif', 'Lucida Grande', 'Verdana', 'Geneva', 'Lucid', 'Arial', 'Helvetica', 'Avant Garde', sans-serif; text-anchor: end" x="41.475865" y="89.060971" transform="rotate(-0 41.475865 89.060971)">0.005</text>
     </g>
    </g>
    <g id="ytick_7">
     <g id="line2d_23">
      <path d="M 48.475865 59.257626 
L 328.19976 59.257626 
" clip-path="url(#pae7edc1d88)" style="fill: none; stroke: #b0b0b0; stroke-opacity: 0.2; stroke-width: 0.8; stroke-linecap: square"/>
     </g>
     <g id="line2d_24">
      <g>
       <use xlink:href="#m968557154a" x="48.475865" y="59.257626" style="stroke: #000000; stroke-width: 0.8"/>
      </g>
     </g>
     <g id="text_13">
      <text style="font-size: 9px; font-family: 'DejaVu Sans', 'Bitstream Vera Sans', 'Computer Modern Sans Serif', 'Lucida Grande', 'Verdana', 'Geneva', 'Lucid', 'Arial', 'Helvetica', 'Avant Garde', sans-serif; text-anchor: end" x="41.475865" y="62.676923" transform="rotate(-0 41.475865 62.676923)">0.006</text>
     </g>
    </g>
    <g id="ytick_8">
     <g id="line2d_25">
      <path d="M 48.475865 32.873578 
L 328.19976 32.873578 
" clip-path="url(#pae7edc1d88)" style="fill: none; stroke: #b0b0b0; stroke-opacity: 0.2; stroke-width: 0.8; stroke-linecap: square"/>
     </g>
     <g id="line2d_26">
      <g>
       <use xlink:href="#m968557154a" x="48.475865" y="32.873578" style="stroke: #000000; stroke-width: 0.8"/>
      </g>
     </g>
     <g id="text_14">
      <text style="font-size: 9px; font-family: 'DejaVu Sans', 'Bitstream Vera Sans', 'Computer Modern Sans Serif', 'Lucida Grande', 'Verdana', 'Geneva', 'Lucid', 'Arial', 'Helvetica', 'Avant Garde', sans-serif; text-anchor: end" x="41.475865" y="36.292875" transform="rotate(-0 41.475865 36.292875)">0.007</text>
     </g>
    </g>
    <g id="ytick_9">
     <g id="line2d_27">
      <path d="M 48.475865 6.48953 
L 328.19976 6.48953 
" clip-path="url(#pae7edc1d88)" style="fill: none; stroke: #b0b0b0; stroke-opacity: 0.2; stroke-width: 0.8; stroke-linecap: square"/>
     </g>
     <g id="line2d_28">
      <g>
       <use xlink:href="#m968557154a" x="48.475865" y="6.48953" style="stroke: #000000; stroke-width: 0.8"/>
      </g>
     </g>
     <g id="text_15">
      <text style="font-size: 9px; font-family: 'DejaVu Sans', 'Bitstream Vera Sans', 'Computer Modern Sans Serif', 'Lucida Grande', 'Verdana', 'Geneva', 'Lucid', 'Arial', 'Helvetica', 'Avant Garde', sans-serif; text-anchor: end" x="41.475865" y="9.908827" transform="rotate(-0 41.475865 9.908827)">0.008</text>
     </g>
    </g>
    <g id="text_16">
     <text style="font-size: 9px; font-family: 'DejaVu Sans', 'Bitstream Vera Sans', 'Computer Modern Sans Serif', 'Lucida Grande', 'Verdana', 'Geneva', 'Lucid', 'Arial', 'Helvetica', 'Avant Garde', sans-serif; text-anchor: middle" x="9.838834" y="115.389688" transform="rotate(-90 9.838834 115.389688)">Checkpoint-to-return loss</text>
    </g>
   </g>
   <g id="line2d_29">
    <path d="M 48.475865 217.561913 
L 328.19976 217.561913 
" clip-path="url(#pae7edc1d88)" style="fill: none; stroke: #777777; stroke-width: 0.8; stroke-linecap: square"/>
   </g>
   <g id="patch_3">
    <path d="M 48.475865 227.779135 
L 48.475865 3.00024 
" style="fill: none; stroke: #000000; stroke-width: 0.8; stroke-linejoin: miter; stroke-linecap: square"/>
   </g>
   <g id="patch_4">
    <path d="M 48.475865 227.779135 
L 328.19976 227.779135 
" style="fill: none; stroke: #000000; stroke-width: 0.8; stroke-linejoin: miter; stroke-linecap: square"/>
   </g>
   <g id="legend_1">
    <g id="PathCollection_11">
     <g>
      <use xlink:href="#m5ecdfdad2b" x="61.775865" y="12.781646" style="fill: #4d4d4d; stroke: #4d4d4d"/>
     </g>
    </g>
    <g id="text_17">
     <text style="font-size: 7px; font-family: 'DejaVu Sans', 'Bitstream Vera Sans', 'Computer Modern Sans Serif', 'Lucida Grande', 'Verdana', 'Geneva', 'Lucid', 'Arial', 'Helvetica', 'Avant Garde', sans-serif; text-anchor: start" x="74.375865" y="14.619146" transform="rotate(-0 74.375865 14.619146)">Source</text>
    </g>
    <g id="PathCollection_12">
     <g>
      <use xlink:href="#m2dcdf66adb" x="61.775865" y="23.056334" style="fill: #d55e00; stroke: #d55e00"/>
     </g>
    </g>
    <g id="text_18">
     <text style="font-size: 7px; font-family: 'DejaVu Sans', 'Bitstream Vera Sans', 'Computer Modern Sans Serif', 'Lucida Grande', 'Verdana', 'Geneva', 'Lucid', 'Arial', 'Helvetica', 'Avant Garde', sans-serif; text-anchor: start" x="74.375865" y="24.893834" transform="rotate(-0 74.375865 24.893834)">TENT</text>
    </g>
    <g id="PathCollection_13">
     <g>
      <use xlink:href="#maf385693e3" x="61.775865" y="33.331021" style="fill: #cc79a7; stroke: #cc79a7"/>
     </g>
    </g>
    <g id="text_19">
     <text style="font-size: 7px; font-family: 'DejaVu Sans', 'Bitstream Vera Sans', 'Computer Modern Sans Serif', 'Lucida Grande', 'Verdana', 'Geneva', 'Lucid', 'Arial', 'Helvetica', 'Avant Garde', sans-serif; text-anchor: start" x="74.375865" y="35.168521" transform="rotate(-0 74.375865 35.168521)">Anchor</text>
    </g>
    <g id="PathCollection_14">
     <g>
      <use xlink:href="#m230b8a539e" x="61.775865" y="43.605709" style="fill: #0072b2; stroke: #0072b2"/>
     </g>
    </g>
    <g id="text_20">
     <text style="font-size: 7px; font-family: 'DejaVu Sans', 'Bitstream Vera Sans', 'Computer Modern Sans Serif', 'Lucida Grande', 'Verdana', 'Geneva', 'Lucid', 'Arial', 'Helvetica', 'Avant Garde', sans-serif; text-anchor: start" x="74.375865" y="45.443209" transform="rotate(-0 74.375865 45.443209)">EMA restore</text>
    </g>
    <g id="PathCollection_15">
     <g>
      <use xlink:href="#m318b170966" x="61.775865" y="53.880396" style="fill: #009e73; stroke: #009e73"/>
     </g>
    </g>
    <g id="text_21">
     <text style="font-size: 7px; font-family: 'DejaVu Sans', 'Bitstream Vera Sans', 'Computer Modern Sans Serif', 'Lucida Grande', 'Verdana', 'Geneva', 'Lucid', 'Arial', 'Helvetica', 'Avant Garde', sans-serif; text-anchor: start" x="74.375865" y="55.717896" transform="rotate(-0 74.375865 55.717896)">Periodic reset</text>
    </g>
   </g>
  </g>
 </g>
 <defs>
  <clipPath id="pae7edc1d88">
   <rect x="48.475865" y="3.00024" width="279.723895" height="224.778895"/>
  </clipPath>
 </defs>
</svg>
